<svg xmlns="http://www.w3.org/2000/svg" viewBox="0 0 305 240">
  <path fill="#232730" fill-rule="evenodd" d="M305 140H205v100h100zm0-80h-75v75h75zm-80 10h-65v65h65zm-25 70h-40v40h40zm0 45h-55v55h55zm-45-30h-25v25h25zm0-25h-20v20h20zm-15 55h-25v25h25zm0 30h-40v25h40zm-30-30H80v25h30zm-15 45H70v10h25zm0-15H70v10h25zM225 20h-45v45h45zm80 10h-70v25h70zm0-30h-70v25h70zM155 85h-40v40h40zm-30 60h-25v35h25zm-30 0H60v35h35zm-60 65H0v30h35zm30-25H40v30h25zm0 35H40v20h25zm10-35h-5v25h5zm55-55h-15v10h15z"/>
</svg>
