<svg xmlns="http://www.w3.org/2000/svg" viewBox="0 0 175 116">
	<path fill="#3280e1" d="M 143.2 -0 c -27.2 29.6 -54.5 59.3 -81.7 88.9 c -10.8 11.4 -30.9 2.4 -46.5 -10.9 c 0 0 -15 18.4 -15 18.4 c 11.5 10.3 18.1 13.8 28.7 17 c 18.1 5.6 39.4 2.7 49.9 -7.2 c 31.9 -35.4 63.9 -70.8 95.8 -106.2 c 0 0 -31.2 0 -31.2 0"/>
	<path fill="#fff" d="M 44.4 0 c -9 0.1 -17.8 2.1 -25.3 6.8 c -20.6 12.1 -14.7 39.2 -8.9 46.1 c 6.9 9.1 19.9 12.6 32.8 16.2 c 11.1 2.5 20 6 20.3 13.9 c -0.1 3.4 -1.1 4.7 -2 6.1 c 0.1 -0.1 0.1 -0.1 0.2 -0.2 c 0 0 11.8 -12.9 11.8 -12.9 c 0 0 0 40.1 0 40.1 c 0 0 25.2 0 25.2 0 c 0 0 0 -67.5 0 -67.5 c 0 0 0 -5.5 0 -5.5 c 0 0 0 -43.1 0 -43.1 c 0 0 -25.2 0 -25.2 0 c 0 0 0 6.6 0 6.6 c 0 0 -0 -0.5 -0 -0.5 c -8.5 -3.9 -18.8 -6.3 -28.9 -6.2 c 0 0 0 0 0 0 m -0.1 22.2 c 12.2 -0.1 21.1 4.6 29 10.2 c 0 0 0 10.7 0 10.7 c 0 0 -0 0 -0 0 c 0 0 0 11.2 0 11.2 c -9.1 -5.5 -20.4 -7 -31.2 -10.6 c -5.6 -1.9 -11.5 -5.4 -11.3 -11 c 0.1 -3.2 1.5 -10.4 13.5 -10.5 c 0 0 0 0 0 0 m 83.1 29.9 c -5.8 6.4 -11.5 12.8 -17.3 19.2 c 0 0 33.6 44.9 33.6 44.9 c 0 0 29.3 0 29.3 0 c 0 0 -45.6 -64.1 -45.6 -64.1 c 0 0 0 0 0 0"/>
</svg>